<mxfile host="app.diagrams.net" modified="2023-07-28T01:45:23.959Z" agent="Mozilla/5.0 (Windows NT 10.0; Win64; x64) AppleWebKit/537.36 (KHTML, like Gecko) Chrome/114.0.0.0 Safari/537.36" version="21.6.5" etag="AuJVCpNvpmxvwjdynrv9" type="github">
  <diagram name="第 1 页" id="fwebZ-M6GbZK7LeobdGf">
    <mxGraphModel>
      <root>
        <mxCell id="0" />
        <mxCell id="1" parent="0" />
      </root>
    </mxGraphModel>
  </diagram>
</mxfile>
